HIERARCHY
ROOT Hips
{
 OFFSET 0.000000 0.000000 0.000000
 CHANNELS 6 Xposition Yposition Zposition Yrotation Xrotation Zrotation
 JOINT Chest
 {
  OFFSET 0.000000 9.585900 0.002600
  CHANNELS 3 Yrotation Xrotation Zrotation
  JOINT Chest2
  {
   OFFSET 0.000000 9.601200 -0.005300
   CHANNELS 3 Yrotation Xrotation Zrotation
   JOINT Chest3
   {
    OFFSET 0.000000 9.561800 0.000000
    CHANNELS 3 Yrotation Xrotation Zrotation
    JOINT Chest4
    {
     OFFSET 0.000000 9.552100 0.000000
     CHANNELS 3 Yrotation Xrotation Zrotation
     JOINT Neck
     {
      OFFSET 0.000000 14.453000 0.000000
      CHANNELS 3 Yrotation Xrotation Zrotation
      JOINT Head
      {
       OFFSET 0.000000 8.936500 -0.011300
       CHANNELS 3 Yrotation Xrotation Zrotation
       End Site
       {
        OFFSET 0.000000 17.073600 -0.006000
       }
      }
     }
     JOINT RightCollar
     {
      OFFSET -2.921100 9.558500 0.000000
      CHANNELS 3 Yrotation Xrotation Zrotation
      JOINT RightShoulder
      {
       OFFSET -13.519700 0.000000 0.000000
       CHANNELS 3 Yrotation Xrotation Zrotation
       JOINT RightElbow
       {
        OFFSET 0.000000 -29.696600 0.000000
        CHANNELS 3 Yrotation Xrotation Zrotation
        JOINT RightWrist
        {
         OFFSET 0.000000 -24.004700 0.000000
         CHANNELS 3 Yrotation Xrotation Zrotation
         End Site
         {
          OFFSET 0.000000 -17.728500 0.000000
         }
        }
       }
      }
     }
     JOINT LeftCollar
     {
      OFFSET 2.921100 9.558500 0.000000
      CHANNELS 3 Yrotation Xrotation Zrotation
      JOINT LeftShoulder
      {
       OFFSET 13.519700 0.000000 0.000000
       CHANNELS 3 Yrotation Xrotation Zrotation
       JOINT LeftElbow
       {
        OFFSET 0.000000 -29.696600 0.000000
        CHANNELS 3 Yrotation Xrotation Zrotation
        JOINT LeftWrist
        {
         OFFSET 0.000000 -24.004700 0.000000
         CHANNELS 3 Yrotation Xrotation Zrotation
         End Site
         {
          OFFSET 0.000000 -17.728500 0.000000
         }
        }
       }
      }
     }
    }
   }
  }
 }
 JOINT RightHip
 {
  OFFSET -7.771700 -0.012900 -0.001300
  CHANNELS 3 Yrotation Xrotation Zrotation
  JOINT RightKnee
  {
   OFFSET 0.000000 -40.869800 0.001200
   CHANNELS 3 Yrotation Xrotation Zrotation
   JOINT RightAnkle
   {
    OFFSET 0.000000 -39.717900 0.002100
    CHANNELS 3 Yrotation Xrotation Zrotation
    JOINT RightToe
    {
     OFFSET 0.000000 -4.965400 11.033500
     CHANNELS 3 Yrotation Xrotation Zrotation
     End Site
     {
      OFFSET 0.000000 -1.423100 5.872300
     }
    }
   }
  }
 }
 JOINT LeftHip
 {
  OFFSET 7.771700 -0.012900 -0.001300
  CHANNELS 3 Yrotation Xrotation Zrotation
  JOINT LeftKnee
  {
   OFFSET 0.000000 -40.869800 0.001200
   CHANNELS 3 Yrotation Xrotation Zrotation
   JOINT LeftAnkle
   {
    OFFSET 0.000000 -39.717900 0.002100
    CHANNELS 3 Yrotation Xrotation Zrotation
    JOINT LeftToe
    {
     OFFSET 0.000000 -4.965400 11.033500
     CHANNELS 3 Yrotation Xrotation Zrotation
     End Site
     {
      OFFSET 0.000000 -1.423100 5.872300
     }
    }
   }
  }
 }
}
MOTION
Frames: 15
Frame Time: 0.008333
0.000000 85.388000 0.000000 0.000000 -5.767877 0.000000 0.000000 11.653817 0.000000 0.000000 -5.885947 0.000000 0.000000 -0.000000 0.000000 0.000000 -0.000000 0.000000 0.000000 12.528835 0.000000 0.000000 0.711642 0.000000 0.000000 -0.000000 0.000000 0.000000 0.000000 -90.000000 0.000000 -2.309062 0.000000 0.000000 2.309062 0.000000 0.000000 -0.000000 0.000000 0.000000 -0.000000 90.000000 0.000000 -2.309062 0.000000 0.000000 2.309062 0.000000 0.000000 8.520406 0.000000 0.000000 1.905762 0.000000 -0.000000 -4.658285 0.000000 0.000000 -0.000000 0.000000 0.000000 8.520406 0.000000 0.000000 1.905762 0.000000 -0.000000 -4.658285 0.000000 0.000000 -0.000000 0.000000
-46.384209 46.545635 11.669050 177.625244 -29.544044 -3.151873 -0.448833 17.153320 1.670255 -0.107229 1.808436 0.195510 -0.112954 3.034849 0.372076 -0.531171 15.051544 1.703463 -5.459905 19.001517 0.184654 -10.104702 -0.367852 2.027502 -0.880476 3.239564 -1.796308 -4.560699 -11.879499 -17.575901 124.880202 -60.382650 -104.889967 11.345344 20.825973 -15.524519 -0.167890 0.105600 1.544511 -3.800514 -2.853738 15.076166 76.917598 -72.723545 -115.938987 -3.189539 13.674909 9.448018 -2.818418 -57.661803 -8.538448 -165.817181 80.635447 -156.759468 -7.483598 -12.286837 -5.840670 0.042637 -0.246250 0.029758 2.227496 -59.447063 9.584238 -107.848812 81.342190 -112.726760 4.009453 -6.378692 7.053275 0.080904 0.326358 0.016694
-46.381783 46.544732 11.668236 177.645365 -29.540056 -3.142940 -0.460551 17.152760 1.662841 -0.072875 1.822559 0.222827 -0.143286 3.027345 0.351607 -0.522826 15.065453 1.713495 -5.416301 19.006667 0.175529 -10.017542 -0.357576 1.998316 -0.892423 3.208275 -1.809855 -4.729400 -11.959037 -17.576003 123.402819 -60.016140 -104.077037 11.712771 21.416725 -15.397048 -0.157082 0.088755 1.530097 -3.818559 -2.911094 15.096717 76.857546 -72.704462 -115.898037 -3.229137 13.648629 9.413849 -2.836168 -57.670846 -8.555163 -165.821300 80.623235 -156.768830 -7.473490 -12.296415 -5.862926 0.041493 -0.249739 0.036450 2.217679 -59.444858 9.562155 -107.798544 81.354110 -112.676435 3.998466 -6.372647 7.043532 0.077192 0.328824 0.024514
-46.378701 46.543866 11.666402 177.664545 -29.539432 -3.132633 -0.471694 17.155501 1.654540 -0.060194 1.826650 0.229290 -0.162405 3.023365 0.341709 -0.490463 15.093658 1.740546 -5.378112 18.998286 0.155237 -9.920282 -0.353447 1.965725 -0.904619 3.163207 -1.827927 -5.011009 -12.039909 -17.570386 122.206943 -59.801406 -103.411857 11.945566 21.802613 -15.443213 -0.157960 0.067367 1.510513 -3.821396 -2.957830 15.117332 76.830129 -72.687427 -115.899557 -3.255555 13.610270 9.429395 -2.850054 -57.675923 -8.575044 -165.824653 80.609745 -156.776889 -7.460429 -12.310276 -5.882172 0.039015 -0.250941 0.039295 2.212529 -59.440337 9.540412 -107.769835 81.363068 -112.647598 3.975073 -6.366845 7.038773 0.094902 0.330037 0.023670
-46.375593 46.542987 11.663489 177.683639 -29.541907 -3.119106 -0.470164 17.162777 1.653706 -0.059866 1.827337 0.224936 -0.162816 3.028512 0.347501 -0.504879 15.092116 1.734174 -5.306234 19.010499 0.142489 -9.812612 -0.353458 1.932437 -0.897228 3.122885 -1.848856 -5.393496 -12.126644 -17.555138 121.268822 -59.676180 -102.857354 12.037684 22.065089 -15.682922 -0.136653 0.071081 1.505545 -3.809645 -2.995087 15.130891 76.910064 -72.666928 -115.954147 -3.244007 13.628009 9.402046 -2.852127 -57.677611 -8.604610 -165.843743 80.598797 -156.800637 -7.454576 -12.321888 -5.895416 0.032600 -0.252791 0.039360 2.224172 -59.433773 9.504986 -107.757924 81.366041 -112.639499 3.979143 -6.366517 7.040961 0.089834 0.329703 0.020389
-46.371668 46.541707 11.660156 177.701531 -29.543350 -3.108074 -0.466007 17.167020 1.650578 -0.059287 1.827819 0.223786 -0.136184 3.042102 0.356591 -0.527852 15.094985 1.728340 -5.245332 19.008385 0.131252 -9.693944 -0.354615 1.897633 -0.924269 3.088548 -1.864293 -5.830291 -12.253931 -17.557846 120.541823 -59.590831 -102.401211 12.005929 22.270693 -16.057242 -0.136595 0.063819 1.504101 -3.789957 -3.015547 15.137658 76.934924 -72.637106 -115.964452 -3.263745 13.638244 9.363010 -2.845074 -57.678140 -8.635962 -165.850404 80.587919 -156.805551 -7.444323 -12.339234 -5.922784 0.020964 -0.249337 0.053012 2.230370 -59.429303 9.477478 -107.766787 81.376727 -112.647897 3.962639 -6.362090 7.040183 0.091831 0.327624 0.020589
-46.369261 46.541212 11.654031 177.734898 -29.558583 -3.094438 -0.451834 17.181065 1.651334 -0.083766 1.829737 0.214760 -0.148418 3.044079 0.352832 -0.481711 15.121008 1.731513 -5.203605 18.993615 0.127842 -9.564994 -0.356704 1.860152 -0.979745 3.049069 -1.872304 -6.290038 -12.395484 -17.583015 119.960613 -59.520371 -102.035365 11.901137 22.456826 -16.445534 -0.179646 0.039888 1.512935 -3.747227 -3.013527 15.134557 76.968829 -72.611635 -115.992333 -3.288493 13.643605 9.334198 -2.831110 -57.665152 -8.694352 -165.862464 80.569433 -156.812259 -7.436623 -12.354537 -5.941981 0.035118 -0.258537 0.050324 2.236279 -59.407881 9.441484 -107.731506 81.372193 -112.622483 3.949025 -6.357030 7.046032 0.087177 0.325421 0.026160
-46.364928 46.539879 11.648552 177.745803 -29.568092 -3.081947 -0.443700 17.187185 1.646426 -0.083566 1.832112 0.214256 -0.156004 3.046827 0.349966 -0.471629 15.130773 1.727841 -5.129697 18.993241 0.118469 -9.426787 -0.362752 1.820252 -1.003759 3.033307 -1.873594 -6.727271 -12.536462 -17.640490 119.457380 -59.458262 -101.744802 11.790496 22.638413 -16.740384 -0.192144 0.033669 1.519698 -3.696968 -3.002074 15.123927 77.007421 -72.586945 -116.020447 -3.232033 13.620057 9.436028 -2.828657 -57.661539 -8.713568 -165.894216 80.553687 -156.846180 -7.439750 -12.369564 -5.959316 0.038400 -0.259210 0.060423 2.245516 -59.394575 9.427063 -107.721216 81.364112 -112.619616 3.938514 -6.357212 7.052532 0.102742 0.324319 0.025093
-46.358889 46.539480 11.640692 177.761474 -29.592331 -3.083026 -0.440530 17.207059 1.648840 -0.083433 1.834730 0.213626 -0.152541 3.051249 0.353156 -0.474798 15.140133 1.717503 -5.051393 18.989748 0.109457 -9.280800 -0.374720 1.779824 -1.023136 3.018139 -1.873555 -7.115497 -12.656693 -17.710690 118.991949 -59.400129 -101.516637 11.728788 22.816163 -16.882540 -0.183611 0.040556 1.525207 -3.613748 -2.974719 15.087225 77.091622 -72.592586 -116.130495 -3.193035 13.608246 9.505258 -2.847153 -57.642912 -8.703242 -165.962660 80.532863 -156.924438 -7.454873 -12.388578 -5.965424 0.034682 -0.264250 0.061164 2.225596 -59.368208 9.448469 -107.718802 81.347076 -112.631041 3.943686 -6.358157 7.045784 0.101038 0.318553 0.037368
-46.355096 46.538166 11.633395 177.775603 -29.610877 -3.072640 -0.446589 17.219648 1.636302 -0.086490 1.839593 0.212013 -0.140153 3.055659 0.353781 -0.486964 15.142987 1.713527 -4.970337 18.987982 0.093504 -9.128307 -0.391964 1.740167 -1.027946 3.002213 -1.886778 -7.454279 -12.742727 -17.773543 118.560489 -59.347548 -101.345653 11.749935 22.982637 -16.861381 -0.175971 0.050790 1.521601 -3.582232 -2.967913 15.075964 77.090408 -72.571157 -116.091559 -3.177715 13.601456 9.546070 -2.829107 -57.628541 -8.728042 -166.016996 80.518591 -156.984012 -7.468562 -12.403181 -5.958599 0.033497 -0.269530 0.044083 2.239761 -59.347717 9.423163 -107.744330 81.339560 -112.660247 3.955636 -6.362076 7.046603 0.089584 0.316492 0.039555
-46.353418 46.537561 11.624029 177.788794 -29.643176 -3.052141 -0.461250 17.246979 1.610661 -0.084904 1.842816 0.210895 -0.134023 3.057322 0.349849 -0.493048 15.149037 1.712221 -4.892661 18.982137 0.076698 -8.971694 -0.412079 1.702790 -1.031504 2.962565 -1.902047 -7.739949 -12.784380 -17.831710 118.163449 -59.298535 -101.213513 11.844828 23.135385 -16.730486 -0.168520 0.063036 1.510050 -3.522734 -2.938903 15.058041 77.126310 -72.571015 -116.107957 -3.169562 13.593771 9.581297 -2.791660 -57.600134 -8.776385 -166.102918 80.504702 -157.076732 -7.479191 -12.420680 -5.955048 0.028539 -0.269339 0.041977 2.259095 -59.310119 9.397004 -107.721989 81.323587 -112.651702 3.957221 -6.359060 7.049799 0.097848 0.309844 0.043173
-46.349117 46.535370 11.617606 177.785537 -29.658831 -3.043961 -0.459554 17.255158 1.600869 -0.083452 1.840155 0.208973 -0.135191 3.065884 0.350475 -0.493491 15.159830 1.700857 -4.809549 18.970676 0.068180 -8.814194 -0.431720 1.670197 -1.028486 2.938030 -1.895472 -7.985313 -12.835861 -17.896630 117.790558 -59.243620 -101.089212 11.967744 23.264518 -16.581939 -0.137507 0.092548 1.484079 -3.479976 -2.925257 15.064295 77.168610 -72.575779 -116.128795 -3.160988 13.588675 9.613940 -2.772932 -57.588702 -8.785024 -166.127667 80.493878 -157.102466 -7.485452 -12.433013 -5.955672 0.031041 -0.268385 0.038816 2.254640 -59.290275 9.424625 -107.658677 81.294551 -112.607099 3.950888 -6.362255 7.051319 0.111808 0.312580 0.052091
-46.345700 46.531964 11.613198 177.783744 -29.662687 -3.035943 -0.460106 17.250523 1.585844 -0.083254 1.844034 0.208221 -0.134926 3.069739 0.356844 -0.496543 15.165455 1.681095 -4.723617 18.965621 0.063443 -8.658080 -0.448208 1.643296 -1.023836 2.928144 -1.877646 -8.198035 -12.895359 -17.965660 117.434030 -59.180760 -100.952873 12.070736 23.355493 -16.489813 -0.117295 0.115018 1.477320 -3.465713 -2.930358 15.077536 77.133169 -72.556895 -116.033361 -3.149343 13.588829 9.646260 -2.755638 -57.592498 -8.790421 -166.128769 80.480291 -157.106777 -7.490703 -12.441360 -5.956757 0.035897 -0.269228 0.038409 2.255445 -59.283849 9.436485 -107.614993 81.276092 -112.576533 3.950987 -6.367137 7.054186 0.111685 0.318148 0.055056
-46.343450 46.528637 11.608693 177.787783 -29.669415 -3.027830 -0.464765 17.252128 1.567072 -0.083813 1.846796 0.209221 -0.136078 3.070210 0.353445 -0.494957 15.181783 1.637776 -4.629581 18.957847 0.093359 -8.505139 -0.458966 1.621986 -1.022164 2.895000 -1.833093 -8.377195 -12.939830 -18.032582 117.094339 -59.120756 -100.804609 12.123365 23.401994 -16.480711 -0.110656 0.108453 1.524448 -3.438786 -2.917466 15.069030 77.088388 -72.538234 -115.929856 -3.140205 13.596417 9.676386 -2.731553 -57.592732 -8.803177 -166.174551 80.467323 -157.156345 -7.509732 -12.453528 -5.950724 0.041350 -0.267555 0.037171 2.257688 -59.275019 9.438512 -107.584939 81.263473 -112.554342 3.937411 -6.368633 7.052772 0.108829 0.324610 0.054777
-46.343773 46.527686 11.600049 177.802425 -29.706061 -3.012107 -0.479644 17.284592 1.534705 -0.086073 1.850753 0.215403 -0.131513 3.071210 0.328021 -0.492876 15.185490 1.651830 -4.553942 18.959995 0.081238 -8.356663 -0.461293 1.605792 -1.019803 2.875075 -1.829197 -8.526975 -12.985613 -18.102717 116.772898 -59.083213 -100.653624 12.118434 23.403462 -16.540599 -0.103934 0.136655 1.508951 -3.385355 -2.906442 15.069707 77.088400 -72.539586 -115.899218 -3.172145 13.593529 9.644679 -2.699549 -57.560158 -8.843039 -166.251377 80.449436 -157.249049 -7.503406 -12.474032 -5.936032 0.019171 -0.262887 0.031486 2.275582 -59.233716 9.414091 -107.572324 81.249631 -112.551427 3.932634 -6.370821 7.049917 0.115302 0.322228 0.062472
